<?xml version="1.0" encoding="utf-8"?>
<!-- Generator: Adobe Illustrator 18.1.1, SVG Export Plug-In . SVG Version: 6.00 Build 0)  -->
<!DOCTYPE svg PUBLIC "-//W3C//DTD SVG 1.1//EN" "http://www.w3.org/Graphics/SVG/1.1/DTD/svg11.dtd">
<svg version="1.1" id="Calque_1" xmlns="http://www.w3.org/2000/svg" xmlns:xlink="http://www.w3.org/1999/xlink" x="0px" y="0px"
	 width="400px" height="400px" viewBox="188 -188 400 400" enable-background="new 188 -188 400 400" xml:space="preserve">
<circle fill="#EBEFF2" cx="387.5" cy="15.1" r="183"/>
<path fill="#3AA488" stroke="#49403B" stroke-width="4" stroke-linecap="round" stroke-linejoin="round" stroke-miterlimit="10" d="
	M302.7,172.1c0,0,50.6,26.6,82,24.8c31.4-1.8,86.4-24.3,86.4-24.3s-8.1-0.9-13.5-3.3c-4.7-2.1-6.3-5.8-11.5-6.9
	c-11.3-2.4-16.7-0.4-16.7-0.4l2.2,10c0,0-19,8.1-43,12.2c-17.9,3.1-46.6-10.9-58.3-19.4c-4-2.9-7.1-7-7.7-6.6
	c-2,1.3-1.8,4.4-5.1,6.4c-4.4,2.6-10.9,2.9-12.5,3.6C302.1,169.1,302.7,172.1,302.7,172.1z"/>
<path fill="#3AA488" stroke="#49403B" stroke-width="4" stroke-miterlimit="10" d="M322.6,158c-2,1.8,9.2,8.2,9.2,8.2l2-4.1V159
	c0,0-4-2.8-6.6-3C324.6,155.8,322.6,158,322.6,158z"/>
<path fill="#FACBB1" stroke="#49403B" stroke-width="4" stroke-linecap="round" stroke-linejoin="round" stroke-miterlimit="10" d="
	M339.7,104.2c0,0-0.4,26.8-2.2,40.5s-5.7,21.5-5.7,21.5s37,21.8,52.3,19.8s44.7-6.8,49.6-11.4c4.9-4.6-3.9-16.6-4.9-26.5
	s-1.9-44.2-1.9-44.2L339.7,104.2z"/>
<path fill="#F6B99B" d="M339.7,105.2c0,0,0.2,10.9,5.6,21.9c5.4,11,16,21.9,36.9,21.9c1.6,0,3.8,2.3,5.3,2.2
	c37.1-1.8,35.4-28.1,41.3-39.7c4.5-8.9-1.9-6.7-1.9-6.7L339.7,105.2z"/>
<path fill="#FACBB1" stroke="#49403B" stroke-width="4" stroke-miterlimit="10" d="M298.5,22.6c0,0-5.1-3.6-9.5-1.9
	c-1.9,0.7-4.9,2.5-6.4,4.9c-2,3.2-2.3,7-2.3,7s-3,24.1,11.6,31.1s17.8-3.3,17.8-3.3l-0.9-25.6L298.5,22.6z"/>
<path fill="#FACBB1" stroke="#49403B" stroke-width="4" stroke-miterlimit="10" d="M452,62.9c0,0,9.7,5.9,18.1-0.2
	c7.5-5.3,12.8-16,13.9-18.6s1.5-20.4-5.8-24.5S462.4,28,462.4,28L452,62.9z"/>
<path fill="none" stroke="#49403B" stroke-width="3" stroke-linecap="round" stroke-linejoin="round" stroke-miterlimit="10" d="
	M287.1,40.6c0,0-0.1-9.5,4.5-9s8.6,9.2,8.6,9.2s-7.7,6.1-6.6,9.4c1,3.4,12.9,7.5,12.9,7.5"/>
<path fill="none" stroke="#49403B" stroke-width="3" stroke-linecap="round" stroke-linejoin="round" stroke-miterlimit="10" d="
	M475.4,34c0,0-0.6-3.9-6.2-1.9c-5.6,1.9-7.1,9-7.1,9s6.6,3.9,5.1,7.5s-9.2,6-9.2,6"/>
<path fill="#FACBB1" stroke="#49403B" stroke-width="4" stroke-miterlimit="10" d="M379-115.7l-53.8,26.9l-28.6,51l1.7,39.4l0.9,21
	c0,0,3.3,22.5,9,40.7c4.8,15.4,11.6,26.2,16.7,32.1c1.7,2,5.5,6.1,10.1,11c11.7,12.3,18.9,22.8,27.4,27.5c8.5,4.6,15.2,4.7,21.6,4.8
	c6.3,0.1,11.4,2.2,25-8.6c14.5-11.5,31.6-36.4,39.6-47.9c15.5-22.2,19.7-68.5,19.7-68.5l-8.6-98.5L379-115.7z"/>
<path fill="#605753" stroke="#49403B" stroke-width="4" stroke-miterlimit="10" d="M372.7-10.3c-0.6-0.9-5.4,0.9-11.4-0.9
	c-9.5-2.8-19.5-7.9-24.4-7c-4.9,0.9-10.7,4.7-16.6,9.7c-4.1,3.4-7.9,6.9-7,7.2c0.9,0.3,15.2-8.5,21.8-9c2.2-0.2,5.2,1.8,8.5,3.2
	c6.6,2.7,11.4,5.2,14,5.6s6.2-0.3,8.7-2.1C368.7-5.5,373.3-9.4,372.7-10.3z"/>
<path fill="#605753" stroke="#49403B" stroke-width="4" stroke-miterlimit="10" d="M399.6-11.8c0.6-0.9,5,1.1,11-0.7
	c9.5-2.8,16.6-8.3,21.5-7.4c4.9,0.9,6.2,2.4,12.2,7.4c4.1,3.4,8.8,8.7,7.9,9s-12.8-8.2-19.3-8.7c-2.2-0.2-5.9,1.2-9.3,2.6
	c-6.6,2.7-8.3,4.2-10.9,4.7c-2.6,0.5-5.6,3.1-8,1.2C402.2-5.6,399-10.9,399.6-11.8z"/>
<path fill="#60544F" stroke="#49403B" stroke-width="4" stroke-miterlimit="10" d="M299.6,23.7c0,0-10.5-44-11.8-53.2
	c-0.7-4.8-1.7-15.9-1.9-25.2c-0.2-8.6,0.5-15.8,0.5-15.8s4.9,17.6,5.8,17.3c0.9-0.3,2.9-24.5,4.6-32.4c1.7-7.9,7.5-20.8,7.5-20.8
	l3.8,14.8c0,0,7.9-18.4,17-28.8s25.5-20.4,25.5-20.4l-8.7,14.3c0,0,9.6-7.4,15.5-10.7c5.9-3.3,26.9-12.7,26.9-12.7l-11,17.9
	c0,0,24.8-10,31.1-12.6c6.3-2.6,12.8-7.3,12.8-7.3l-1.4,18.8c0,0,5.2-2.4,8.3-4.9c3.1-2.5,5.2-6.5,5.2-6.5l3.3,15.6
	c0,0,9-7,11.9-10.3c2.9-3.4,5.7-10.4,5.7-10.4l0.6,31.8c0,0,6.7-1.4,10.9-3.2c4.2-1.8,7-5.2,7-5.2s4,8,1.9,15.4
	c-2.1,7.4-7.1,15.2-7.1,15.2s2.2,0.5,5.1-0.6s6.7-3.5,6.7-3.5s-3,6.5-4.8,11.1c-1.8,4.5-5.9,14.1-5.9,14.1s2.5,0.8,5.9-1.3
	c3.5-2,8.5-6.5,8.5-6.5s-0.4,3.6-0.9,9.8c-0.6,7.6,0.2,17.8-0.9,21.1c-1.9,6-8.3,14.2-8.3,14.2l11.3-4.9c0,0-6.8,22-9.4,36.8
	s-1.7,27.4-1.7,27.4l-4.1,3.4c0,0-4-4.7-4.5-11.7s2.4-16.4,1.5-23.7c-0.6-5.1-2.8-9.5-2.8-11.7c-0.1-8.7,1.5-22.8,1.5-22.8l-1.2-8.1
	l-7.2,7.5l0.3-13.3l-2.3,6.4L450-64.6l-3.5,10.7l3.5-18.2c0,0-1.8,2.6-5.6,5.3c-3.8,2.8-6.8,3.3-6.8,3.3s2.6-2.2,3.8-4.4
	c1.2-2.2,1.4-3.4,1.4-3.4s-4,0.3-8.5,1.3c-5.8,1.3-12.3,3.3-12.3,2.7c0-0.5,2.7-4,4.2-7.4c1.4-3.2,1.6-6.2,1.6-6.2s-7,4.4-10.4,5.2
	c-3.4,0.8-6.3,0-6.3,0l9.4-11.2l0.6-0.7c0,0-10.2,7.6-13.1,9.2c-3,1.6-13.7,5.2-14,4.9c-0.3-0.3,6.6-5.5,8.7-7.6s1.8-5.4,1.8-5.4
	s-4.2-0.3-9.3,1.2c-6.1,1.9-13.4,5.7-16.3,6.7c-2.9,1,23.2-18.1,17.2-15c-4.9,2.5-28.6,20.9-28.6,20.9l10.6-18.7
	c0,0-5.5,5.3-11.1,11.6c-5.6,6.3-17.2,13.1-17.2,13.1s4.5-7.6,5.3-11.1c0.9-3.5,0.7-9.4,0.7-9.4s-9.8,12.6-16.7,16.6
	c-6.8,4-12.2,6.5-12.2,6.5s-8.1,7-11.3,13.6s-6.2,15.5-8.4,23.1c-1.2,4.3-2.3,5.9-4.3,18.7c-0.5,3.3,2.4,10.4,1.7,15
	C303.2,16.3,299.6,23.7,299.6,23.7z"/>
<path fill="none" stroke="#49403B" stroke-width="4" stroke-linecap="round" stroke-linejoin="round" stroke-miterlimit="10" d="
	M415.6,78.6c0,0-4.5,7.1-7.8,7.5c-3.3,0.5-22.1,0.7-22.1,0.7s-20.7-0.6-24-2.1c-3.3-1.6-5.9-6.6-5.9-6.6"/>
<path fill="none" stroke="#49403B" stroke-width="4" stroke-linecap="round" stroke-linejoin="round" stroke-miterlimit="10" d="
	M326.9,22.3c0,0,5.3-6.1,13.1-7.3c2.3-0.4,4.3-0.1,6.8,0.4c5.9,1.4,11.8,4.5,11.8,4.5"/>
<ellipse fill="#FFFFFF" cx="342.7" cy="24.5" rx="9.1" ry="9.5"/>
<g>
	<path fill="none" d="M351,24.7c-0.4-1.9-1.4-1.7-3-0.9c0,0.1,0,0.2,0,0.2c0,2.7-2.2,4.9-4.9,4.9c-2,0-3.6-1.2-4.4-2.8
		c-2.3-0.2-3.9-0.6-3.5,1.6c0.7,3.5,4.8,5.6,9.2,4.7C348.7,31.7,351.7,28.2,351,24.7z"/>
	<path fill="#49403B" d="M342.5,14.6c-5.7,0-10.3,4.6-10.3,10.3s4.6,10.3,10.3,10.3s10.3-4.6,10.3-10.3
		C352.8,19.2,348.1,14.6,342.5,14.6z M339.7,16.8c2.4-1.4,5-0.7,5.8,0.7c0.9,1.4-0.7,2.7-3.1,4.1c-2.4,1.5-3.9,2.2-4.8,0.8
		C336.8,21,337.4,18.3,339.7,16.8z M344.3,32.6c-4.4,0.9-8.5-1.3-9.2-4.7c-0.4-2.2,1.1-1.9,3.5-1.6c0.8,1.7,2.5,2.8,4.4,2.8
		c2.7,0,4.9-2.2,4.9-4.9c0-0.1,0-0.2,0-0.2c1.6-0.8,2.6-1.1,3,0.9C351.7,28.2,348.7,31.7,344.3,32.6z"/>
</g>
<ellipse fill="#FFFFFF" cx="424.2" cy="23.2" rx="9.1" ry="9.4"/>
<g>
	<path fill="none" d="M432.4,23.4c-0.4-1.9-1.4-1.7-3-0.9c0,0.1,0,0.2,0,0.2c0,2.7-2.2,4.9-4.9,4.9c-2,0-3.6-1.1-4.4-2.8
		c-2.3-0.2-3.9-0.6-3.4,1.6c0.7,3.5,4.8,5.6,9.1,4.7C430.2,30.4,433.1,26.9,432.4,23.4z"/>
	<path fill="#49403B" d="M426.6,13.7c-5.5-1.4-11.1,1.8-12.6,7.3c-1.4,5.5,1.8,11.1,7.3,12.6c5.5,1.4,11.1-1.8,12.6-7.3
		C435.3,20.8,432.1,15.1,426.6,13.7z M423.4,15.2c2.7-0.8,5,0.6,5.5,2.2c0.5,1.6-0.7,2.8-3.3,3.6c-2.7,0.8-5,0.7-5.5-0.9
		C419.5,18.5,420.7,16,423.4,15.2z M423.8,31.5c-4.4-0.3-7.8-3.4-7.6-6.9c0.1-2.2,1.6-1.5,3.7-0.7c0.3,1.8,1.7,3.3,3.5,3.8
		c2.6,0.7,5.3-0.9,6-3.5c0-0.1,0-0.2,0-0.2c1.7-0.4,2.8-0.4,2.7,1.6C432,29.1,428.2,31.8,423.8,31.5z"/>
</g>
<path fill="none" stroke="#49403B" stroke-width="4" stroke-linecap="round" stroke-linejoin="round" stroke-miterlimit="10" d="
	M410.2,19.8c0,0,7.3-5.3,15.4-5.7c8.1-0.4,14.9,6.5,14.9,6.5"/>
<g>
	<path fill="#49403B" d="M361.7,43h-39.6c-4.4,0-9.1-4.6-9.1-8.7V14c0-3.6,3.2-5.9,9.1-5.9h39.6c1.7,0,7.3,0.1,7.3,5.9v20.3
		C369,38,366.5,43,361.7,43z M322.1,12c-3.1,0-6.1,0.9-6.1,1.9v20.3c0,1.8,3.8,4.7,6.1,4.7h39.6c1.8,0,3.3-2.6,3.3-4.7V13.9
		c0-1.2-0.3-1.9-3.3-1.9H322.1z"/>
</g>
<g>
	<path fill="#49403B" d="M447.7,42h-38.3c-4.4,0-9.4-4.9-9.4-9.1V12.6c0-3.6,3.6-5.8,9.5-5.8c0,0,7-1.3,21-1.3
		c14.1,0,17.4,1.3,17.4,1.3c1.7,0,7.1,0,7.1,5.8v20.3C455,36.7,452.5,42,447.7,42z M409.5,10.7c-3.1,0-5.5,0.9-5.5,1.9v20.3
		c0,1.8,3.1,5.1,5.4,5.1h38.3c1.8,0,3.3-2.9,3.3-5.1V12.6c0-1.2-0.2-1.9-3.1-1.9c-7.7-1.5-6.3-1.7-17.5-1.3
		C420,9.7,409.5,10.7,409.5,10.7z"/>
</g>
<path fill="#49403B" d="M402.4,14.8c0,0-9-1.6-16.5-1.6S367,14.4,367,14.4v4.7c0,0,11.4-1.5,19-1.6s15.9,2.2,15.9,2.2L402.4,14.8z"
	/>
<path fill="#49403B" d="M453.6,19.2c0,0,7.2-0.1,11.3,0c4,0.1,4.8,0.4,4.8,0.4l-0.4-3.4c0,0-1.8-1.3-5.3-1.2
	c-3.5,0.2-9.6,0.9-9.6,0.9L453.6,19.2z"/>
<polygon fill="#49403B" points="313.5,19.9 296,19.4 296,23.7 313.2,24.6 "/>
<g>
	<path fill="#BC907D" d="M309.2,45.9c0,0-1.1,0.8-2.3,1.4c-0.3,0.2-0.6,0.4-0.9,0.5c-0.3,0.1-0.6,0.2-0.8,0.2c-0.5,0.1-0.9,0-0.9,0
		v-0.1c0,0,0.2-0.3,0.6-0.7c0.2-0.2,0.5-0.3,0.7-0.5c0.3-0.1,0.6-0.2,1-0.3C307.8,46.2,309.2,45.8,309.2,45.9L309.2,45.9z"/>
</g>
<g>
	<path fill="#BC907D" d="M311.7,55.8c0,0-0.8,0.9-1.7,1.6c-0.2,0.2-0.4,0.4-0.6,0.6c-0.2,0.2-0.5,0.3-0.7,0.3
		c-0.4,0.2-0.8,0.1-0.8,0.1l-0.1-0.1c0,0,0.1-0.3,0.4-0.7c0.1-0.2,0.3-0.4,0.5-0.5c0.2-0.1,0.5-0.3,0.8-0.4
		C310.6,56.2,311.6,55.7,311.7,55.8L311.7,55.8z"/>
</g>
<g>
	<path fill="#BC907D" d="M318.1,65.5c0,0-0.9,0.3-1.8,0.5c-0.2,0.1-0.5,0.1-0.7,0.2c-0.2,0-0.4,0-0.6-0.1c-0.4-0.1-0.6-0.3-0.6-0.3
		v-0.1c0,0,0.2-0.2,0.6-0.4c0.2-0.1,0.4-0.1,0.6-0.2c0.2,0,0.5,0.1,0.7,0.1C317.2,65.2,318.1,65.4,318.1,65.5L318.1,65.5z"/>
</g>
<g>
	<path fill="none" d="M334,70.6"/>
</g>
<g>
	<path fill="#BC907D" d="M334,70.7c0,0-1.1,0.9-2.2,1.8c-0.3,0.2-0.5,0.5-0.8,0.6c-0.3,0.2-0.6,0.3-0.8,0.4
		c-0.5,0.2-0.9,0.2-0.9,0.2l-0.1-0.1c0,0,0.2-0.4,0.5-0.8c0.2-0.2,0.4-0.4,0.7-0.6s0.6-0.3,0.9-0.4C332.6,71.1,333.9,70.6,334,70.7
		L334,70.7z"/>
</g>
<g>
	<path fill="#BC907D" d="M320.4,73.1c0,0-1.5,1.4-3,2.8c-0.4,0.3-0.7,0.7-1.1,1c-0.4,0.3-0.8,0.5-1.1,0.7c-0.7,0.4-1.2,0.5-1.2,0.5
		l-0.1-0.1c0,0,0.3-0.5,0.8-1.1c0.3-0.3,0.6-0.6,1-0.9c0.4-0.3,0.8-0.5,1.3-0.8C318.6,74.1,320.3,73.1,320.4,73.1L320.4,73.1z"/>
</g>
<g>
	<path fill="#BC907D" d="M327.1,82.6c0,0-0.9,1.7-1.9,3.4c-0.2,0.4-0.5,0.9-0.7,1.3c-0.3,0.4-0.5,0.7-0.8,1c-0.5,0.5-1,0.8-1,0.8
		l-0.1-0.1c0,0,0.1-0.5,0.4-1.2c0.2-0.3,0.4-0.7,0.6-1.1c0.3-0.4,0.6-0.7,0.9-1.1C325.7,84,327,82.5,327.1,82.6L327.1,82.6z"/>
</g>
<g>
	<path fill="#BC907D" d="M337.7,79.6c0,0-0.4,1.4-0.8,2.9c-0.1,0.4-0.2,0.7-0.3,1c-0.1,0.3-0.3,0.6-0.5,0.8
		c-0.3,0.5-0.7,0.7-0.7,0.7h-0.1c0,0-0.1-0.4,0-1c0-0.3,0.1-0.6,0.2-0.9c0.1-0.3,0.3-0.6,0.5-1C336.9,80.8,337.6,79.5,337.7,79.6
		L337.7,79.6z"/>
</g>
<g>
	<path fill="#BC907D" d="M341.7,88.5c0,0-1.1,0.5-2.3,0.8c-0.3,0.1-0.6,0.2-0.8,0.3c-0.3,0.1-0.5,0.1-0.8,0c-0.5,0-0.8-0.2-0.8-0.2
		v-0.1c0,0,0.2-0.3,0.7-0.5c0.2-0.1,0.5-0.2,0.7-0.3c0.3,0,0.6,0,0.9-0.1C340.4,88.5,341.6,88.4,341.7,88.5L341.7,88.5z"/>
</g>
<g>
	<path fill="#BC907D" d="M338.7,94.7c0,0-2.2,1.8-4.4,3.5c-0.6,0.4-1.1,0.9-1.6,1.3s-1.1,0.7-1.5,0.9c-0.9,0.5-1.6,0.7-1.6,0.7
		l-0.1-0.1c0,0,0.4-0.6,1.2-1.3c0.4-0.4,0.9-0.8,1.4-1.1c0.5-0.4,1.2-0.7,1.8-1.1C336.2,96.1,338.6,94.6,338.7,94.7L338.7,94.7z"/>
</g>
<g>
	<path fill="#BC907D" d="M345.9,96.7c0,0-0.8,1.3-1.7,2.5c-0.2,0.3-0.4,0.6-0.6,0.9c-0.2,0.3-0.5,0.5-0.7,0.6
		c-0.5,0.3-0.9,0.5-0.9,0.5l-0.1-0.1c0,0,0.1-0.4,0.4-0.9c0.1-0.3,0.3-0.5,0.5-0.8s0.5-0.5,0.8-0.7
		C344.7,97.6,345.8,96.6,345.9,96.7L345.9,96.7z"/>
</g>
<g>
	<path fill="#BC907D" d="M348.9,106.1c0,0-0.9,0.7-1.8,1.3c-0.2,0.2-0.4,0.3-0.7,0.5c-0.2,0.1-0.5,0.2-0.7,0.2c-0.4,0.1-0.8,0-0.8,0
		V108c0,0,0.1-0.3,0.5-0.6c0.2-0.2,0.3-0.3,0.6-0.4c0.2-0.1,0.5-0.2,0.8-0.3C347.7,106.3,348.8,106,348.9,106.1L348.9,106.1z"/>
</g>
<g>
	<path fill="#BC907D" d="M359.3,105.3c0,0-0.2,1.4-0.5,2.8c-0.1,0.4-0.1,0.7-0.2,1s-0.2,0.6-0.4,0.8c-0.3,0.5-0.6,0.7-0.6,0.7h-0.1
		c0,0-0.1-0.4-0.1-1c0-0.3,0.1-0.6,0.2-0.9c0.1-0.3,0.3-0.6,0.4-1C358.6,106.6,359.2,105.3,359.3,105.3L359.3,105.3z"/>
</g>
<g>
	<path fill="#BC907D" d="M358,118.7c0,0-1.2,1.4-2.5,2.7c-0.3,0.3-0.6,0.7-0.9,1c-0.3,0.3-0.7,0.5-1,0.7c-0.6,0.4-1.1,0.5-1.1,0.5
		l-0.1-0.1c0,0,0.2-0.5,0.6-1c0.2-0.3,0.5-0.6,0.8-0.9c0.3-0.3,0.7-0.5,1.1-0.8C356.5,119.7,358,118.7,358,118.7L358,118.7z"/>
</g>
<g>
	<path fill="#BC907D" d="M367.5,112.8c0,0,0,1.3,0,2.5c0,0.3,0,0.6,0,0.9s-0.1,0.6-0.2,0.8c-0.2,0.4-0.5,0.7-0.5,0.7h-0.1
		c0,0-0.2-0.3-0.2-0.8c0-0.2,0-0.5,0-0.8c0.1-0.3,0.2-0.6,0.3-0.9C367,114,367.4,112.8,367.5,112.8L367.5,112.8z"/>
</g>
<g>
	<path fill="#BC907D" d="M363.7,124.4c0,0-0.6,1.2-1.2,2.3c-0.2,0.3-0.3,0.6-0.4,0.8c-0.2,0.2-0.4,0.4-0.6,0.6
		c-0.4,0.3-0.8,0.5-0.8,0.5l-0.1-0.1c0,0,0-0.4,0.2-0.9c0.1-0.2,0.2-0.5,0.4-0.7s0.4-0.5,0.6-0.7
		C362.7,125.3,363.7,124.4,363.7,124.4L363.7,124.4z"/>
</g>
<g>
	<path fill="#BC907D" d="M379.1,116.7c0,0-0.2,1.5-0.5,3.1c-0.1,0.4-0.1,0.8-0.2,1.1c-0.1,0.3-0.2,0.7-0.4,0.9
		c-0.3,0.5-0.6,0.8-0.6,0.8h-0.1c0,0-0.1-0.4-0.1-1c0-0.3,0.1-0.6,0.2-1c0.1-0.3,0.3-0.7,0.4-1.1C378.4,118.1,379,116.7,379.1,116.7
		L379.1,116.7z"/>
</g>
<g>
	<path fill="#BC907D" d="M368,132c0,0,0.2,1.2,0.4,2.5c0,0.3,0.1,0.6,0.1,0.9s-0.1,0.5-0.1,0.8c-0.1,0.5-0.4,0.8-0.4,0.8h-0.1
		c0,0-0.2-0.3-0.4-0.8c-0.1-0.2-0.1-0.5-0.1-0.8s0.1-0.6,0.1-0.9c0.1-1.3,0.3-2.5,0.3-2.5H368z"/>
</g>
<g>
	<path fill="#BC907D" d="M379.7,129c0,0,0.2,1.4,0.4,2.7c0,0.3,0.1,0.7,0.1,1s-0.1,0.4-0.1,0.6c-0.1,0.5-0.4,0.6-0.4,0.6h-0.1
		c0,0-0.2-0.1-0.4-0.6c-0.1-0.2-0.1-0.4-0.1-0.7c0-0.3,0.1-0.7,0.1-1c0.1-1.3,0.3-2.7,0.3-2.7h0.2V129z"/>
</g>
<g>
	<path fill="#BC907D" d="M386.2,119c0,0,0.2,1.2,0.3,2.5c0,0.3,0.1,0.6,0.1,0.9s-0.1,0.5-0.1,0.8c-0.1,0.5-0.4,0.8-0.4,0.8H386
		c0,0-0.2-0.3-0.4-0.8c-0.1-0.2-0.1-0.5-0.1-0.8s0.1-0.5,0.1-0.9c0.1-1.3,0.4-2.5,0.4-2.5H386.2z"/>
</g>
<g>
	<path fill="#BC907D" d="M393,112c0,0,0.9,1.5,1.8,2.9c0.2,0.4,0.5,0.7,0.7,1.1s0.3,0.7,0.4,1c0.2,0.6,0.1,1.1,0.1,1.1h-0.1
		c0,0-0.4-0.3-0.8-0.8c-0.2-0.3-0.4-0.6-0.6-0.9c-0.2-0.4-0.3-0.8-0.4-1.2C393.4,113.7,392.9,112,393,112L393,112z"/>
</g>
<g>
	<path fill="#BC907D" d="M403.4,108.3c0,0,0.7,1.3,1.3,2.6c0.2,0.3,0.3,0.6,0.5,1c0.1,0.3,0.2,0.6,0.2,0.9c0.1,0.6,0,1,0,1h-0.1
		c0,0-0.3-0.3-0.6-0.7c-0.2-0.2-0.3-0.5-0.4-0.8c-0.1-0.3-0.2-0.7-0.3-1C403.6,109.8,403.3,108.3,403.4,108.3L403.4,108.3z"/>
</g>
<g>
	<path fill="#BC907D" d="M411.6,112.2c0,0,1.1,1.6,2,3.2c0.2,0.4,0.5,0.8,0.7,1.2c0.2,0.4,0.3,0.8,0.4,1.1c0.2,0.7,0.2,1.2,0.2,1.2
		h-0.1c0,0-0.4-0.3-0.9-0.9c-0.2-0.3-0.5-0.6-0.7-1c-0.2-0.4-0.3-0.8-0.5-1.3C412.2,114.1,411.5,112.3,411.6,112.2L411.6,112.2z"/>
</g>
<g>
	<path fill="#BC907D" d="M402.9,123.4c0,0,0.6,1.1,1.2,2.2c0.1,0.3,0.3,0.6,0.4,0.8c0.1,0.3,0.1,0.6,0.2,0.8c0,0.5-0.1,0.9-0.1,0.9
		h-0.1c0,0-0.3-0.2-0.6-0.6c-0.1-0.2-0.3-0.4-0.4-0.7c-0.1-0.3-0.1-0.6-0.2-0.9C403,124.7,402.8,123.4,402.9,123.4L402.9,123.4z"/>
</g>
<g>
	<path fill="#BC907D" d="M413.6,102.6c0,0,0.5,0.8,0.9,1.6c0.1,0.2,0.3,0.4,0.3,0.6c0.1,0.2,0.1,0.4,0.1,0.6c0,0.4-0.1,0.7-0.1,0.7
		h-0.1c0,0-0.3-0.1-0.5-0.4c-0.1-0.1-0.2-0.3-0.3-0.5s-0.1-0.4-0.1-0.7C413.6,103.6,413.5,102.6,413.6,102.6L413.6,102.6z"/>
</g>
<g>
	<path fill="#BC907D" d="M422.5,95.6c0,0,1.8,2,3.5,4c0.4,0.5,0.9,1,1.3,1.5c0.4,0.5,0.7,1,0.9,1.4c0.5,0.9,0.7,1.5,0.7,1.5
		l-0.1,0.1c0,0-0.6-0.4-1.3-1.1c-0.4-0.4-0.7-0.8-1.1-1.3c-0.4-0.5-0.7-1.1-1.1-1.6C423.8,97.9,422.4,95.7,422.5,95.6L422.5,95.6z"
		/>
</g>
<g>
	<path fill="#BC907D" d="M423,83.7c0,0,0.7,1,1.3,2.1c0.2,0.3,0.3,0.5,0.5,0.8c0.1,0.3,0.2,0.5,0.2,0.8c0.1,0.5,0,0.8,0,0.8h-0.1
		c0,0-0.3-0.2-0.6-0.6c-0.2-0.2-0.3-0.4-0.4-0.7c-0.1-0.3-0.2-0.6-0.3-0.9C423.2,85,422.9,83.8,423,83.7L423,83.7z"/>
</g>
<g>
	<path fill="#BC907D" d="M433.6,90.7c0,0,0.9,0.9,1.8,1.8c0.2,0.2,0.5,0.4,0.6,0.7c0.2,0.2,0.3,0.5,0.4,0.7c0.2,0.4,0.2,0.8,0.2,0.8
		l-0.1,0.1c0,0-0.4-0.1-0.7-0.4c-0.2-0.1-0.4-0.3-0.6-0.6c-0.2-0.2-0.3-0.5-0.4-0.8C434.1,91.9,433.6,90.7,433.6,90.7L433.6,90.7z"
		/>
</g>
<g>
	<path fill="#BC907D" d="M434.1,78.1c0,0,0.5,1.4,1,2.9c0.1,0.4,0.3,0.7,0.3,1.1c0.1,0.3,0.1,0.7,0.1,1c0,0.6-0.1,1-0.1,1h-0.1
		c0,0-0.3-0.3-0.5-0.9c-0.1-0.3-0.2-0.6-0.3-0.9c-0.1-0.4-0.1-0.7-0.1-1.1C434.1,79.6,434,78.1,434.1,78.1L434.1,78.1z"/>
</g>
<g>
	<path fill="#BC907D" d="M443,83.2c0,0,0.8,0,1.5,0.2c0.2,0,0.4,0,0.5,0.1c0.2,0.1,0.3,0.2,0.4,0.3c0.2,0.2,0.3,0.5,0.3,0.5v0.1
		c0,0-0.2,0.1-0.5,0.2c-0.2,0-0.3,0-0.5,0c-0.2-0.1-0.3-0.2-0.5-0.3C443.6,83.8,443,83.3,443,83.2L443,83.2z"/>
</g>
<g>
	<path fill="#BC907D" d="M440.1,72.1c0,0,1,0.8,2,1.8c0.2,0.2,0.5,0.4,0.7,0.6c0.2,0.2,0.4,0.5,0.5,0.7c0.2,0.5,0.3,0.9,0.3,0.9
		l-0.1,0.1c0,0-0.4-0.1-0.8-0.4c-0.2-0.1-0.4-0.3-0.6-0.6c-0.2-0.2-0.4-0.5-0.5-0.8C440.7,73.3,440,72.1,440.1,72.1L440.1,72.1z"/>
</g>
<g>
	<path fill="#BC907D" d="M448.7,66.6c0,0,1.4,0.3,2.7,0.7c0.3,0.1,0.7,0.1,1,0.3c0.3,0.1,0.6,0.3,0.8,0.4c0.4,0.3,0.7,0.6,0.7,0.6
		v0.1c0,0-0.4,0.1-0.9,0c-0.3,0-0.6-0.1-0.9-0.2s-0.6-0.3-0.9-0.5C449.9,67.4,448.7,66.7,448.7,66.6L448.7,66.6z"/>
</g>
<g>
	<path fill="#BC907D" d="M452.7,52c0,0,1,1,1.9,2c0.2,0.3,0.5,0.5,0.7,0.7c0.2,0.3,0.3,0.5,0.4,0.8c0.2,0.5,0.2,0.9,0.2,0.9
		l-0.1,0.1c0,0-0.4-0.1-0.8-0.5c-0.2-0.2-0.4-0.4-0.6-0.6c-0.2-0.3-0.3-0.6-0.5-0.9C453.3,53.3,452.6,52.1,452.7,52L452.7,52z"/>
</g>
<g>
	<path fill="#BC907D" d="M455.4,45.1c0,0,0.8,0,1.5,0.2c0.2,0,0.4,0,0.5,0.1c0.2,0.1,0.3,0.2,0.4,0.3c0.2,0.2,0.3,0.5,0.3,0.5v0.1
		c0,0-0.2,0.1-0.5,0.2c-0.2,0-0.3,0-0.5,0c-0.2-0.1-0.3-0.2-0.5-0.3C456,45.6,455.4,45.1,455.4,45.1L455.4,45.1z"/>
</g>
<g>
	<path fill="#BC907D" d="M441.1,54.2c0,0,1,0.8,1.9,1.6c0.2,0.2,0.5,0.4,0.7,0.6c0.2,0.2,0.3,0.5,0.4,0.7c0.2,0.4,0.2,0.8,0.2,0.8
		l-0.1,0.1c0,0-0.4-0.1-0.8-0.4c-0.2-0.1-0.4-0.3-0.6-0.5c-0.2-0.2-0.3-0.5-0.5-0.8C441.6,55.4,441,54.3,441.1,54.2L441.1,54.2z"/>
</g>
<g>
	<path fill="#BC907D" d="M434.1,61.4c0,0,0.8,1.1,1.6,2.3c0.2,0.3,0.4,0.6,0.6,0.9c0.1,0.3,0.2,0.6,0.3,0.8c0.1,0.5,0.1,0.9,0.1,0.9
		h-0.1c0,0-0.4-0.2-0.7-0.6c-0.2-0.2-0.4-0.5-0.5-0.7c-0.1-0.3-0.2-0.6-0.3-1C434.5,62.8,434,61.5,434.1,61.4L434.1,61.4z"/>
</g>
<g>
	<path fill="#BC907D" d="M424.5,67.6c0,0,0.7,2.3,1.3,4.6c0.2,0.6,0.4,1.2,0.5,1.7c0.1,0.6,0.2,1.1,0.2,1.5c0.1,0.9,0,1.5,0,1.5
		h-0.1c0,0-0.3-0.5-0.7-1.4c-0.2-0.4-0.3-0.9-0.4-1.5c-0.1-0.6-0.2-1.2-0.2-1.8C424.7,70.1,424.4,67.7,424.5,67.6L424.5,67.6z"/>
</g>
<g>
	<path fill="#BC907D" d="M416.5,68.1c0,0,1,1.5,1.9,3.1c0.2,0.4,0.5,0.8,0.7,1.1c0.2,0.4,0.3,0.8,0.4,1.1c0.2,0.7,0.2,1.2,0.2,1.2
		h-0.1c0,0-0.4-0.3-0.8-0.9c-0.2-0.3-0.4-0.6-0.6-1c-0.2-0.4-0.3-0.8-0.5-1.2C417.1,69.9,416.4,68.2,416.5,68.1L416.5,68.1z"/>
</g>
<g>
	<path fill="#BC907D" d="M408.4,69.1c0,0,0.8,1.5,1.6,3c0.2,0.4,0.4,0.7,0.6,1.1c0.1,0.4,0.2,0.7,0.3,1c0.1,0.6,0.1,1.1,0.1,1.1
		h-0.1c0,0-0.4-0.3-0.7-0.8c-0.2-0.3-0.4-0.6-0.5-0.9c-0.1-0.4-0.2-0.8-0.3-1.2C408.7,70.8,408.3,69.2,408.4,69.1L408.4,69.1z"/>
</g>
<g>
	<path fill="#BC907D" d="M403.2,71.8c0,0,0.6,0.8,1.2,1.6c0.1,0.2,0.3,0.4,0.4,0.6c0.1,0.2,0.1,0.4,0.2,0.6c0,0.4,0,0.7,0,0.7h-0.1
		c0,0-0.3-0.1-0.6-0.4c-0.1-0.1-0.3-0.3-0.4-0.5c-0.1-0.2-0.1-0.5-0.2-0.7C403.3,72.9,403.1,71.9,403.2,71.8L403.2,71.8z"/>
</g>
<g>
	<path fill="#BC907D" d="M395,68.1c0,0,0.6,2.1,1.2,4.1c0.1,0.5,0.3,1,0.4,1.5c0.1,0.5,0.1,1,0.2,1.4c0,0.8-0.1,1.4-0.1,1.4h-0.1
		c0,0-0.3-0.5-0.6-1.2c-0.1-0.4-0.3-0.8-0.4-1.3c-0.1-0.5-0.1-1-0.2-1.6C395.1,70.3,394.9,68.2,395,68.1L395,68.1z"/>
</g>
<g>
	<path fill="#BC907D" d="M387.8,71.9c0,0,0.4,1.3,0.7,2.7c0.1,0.3,0.2,0.7,0.3,1c0,0.3,0,0.6,0,0.9c-0.1,0.5-0.2,0.9-0.2,0.9h-0.1
		c0,0-0.3-0.3-0.5-0.8c-0.1-0.2-0.2-0.5-0.2-0.9c0-0.3,0-0.7,0-1C387.7,73.3,387.7,71.9,387.8,71.9L387.8,71.9z"/>
</g>
<g>
	<path fill="#BC907D" d="M382.1,68.9c0,0,0.1,1.8,0.1,3.6c0,0.5,0,0.9,0,1.3s-0.1,0.8-0.2,1.1c-0.2,0.7-0.4,1.1-0.4,1.1h-0.1
		c0,0-0.2-0.5-0.3-1.1c0-0.3-0.1-0.7,0-1.2c0-0.4,0.1-0.9,0.2-1.3C381.7,70.7,382,68.9,382.1,68.9L382.1,68.9z"/>
</g>
<g>
	<path fill="#BC907D" d="M373.2,72c0,0,0.2,0.9,0.4,1.9c0,0.2,0.1,0.5,0.1,0.7s-0.1,0.5-0.1,0.7c-0.1,0.4-0.4,0.7-0.4,0.7h-0.1
		c0,0-0.2-0.3-0.4-0.7c-0.1-0.2-0.1-0.4-0.1-0.7c0-0.2,0.1-0.5,0.1-0.7C372.9,73,373.1,72,373.2,72L373.2,72z"/>
</g>
<g>
	<path fill="#BC907D" d="M370.4,69.9c0,0-1.2,1.8-2.5,3.6c-0.3,0.4-0.6,0.9-0.9,1.3s-0.7,0.7-1,1c-0.6,0.5-1.1,0.8-1.1,0.8l-0.1-0.1
		c0,0,0.2-0.6,0.6-1.3c0.2-0.4,0.5-0.8,0.8-1.1c0.3-0.4,0.7-0.8,1.1-1.2C368.8,71.4,370.4,69.9,370.4,69.9L370.4,69.9z"/>
</g>
<g>
	<path fill="#BC907D" d="M361.8,68.4c0,0-0.4,1.2-0.9,2.4c-0.1,0.3-0.2,0.6-0.3,0.9s-0.3,0.5-0.5,0.7c-0.3,0.4-0.7,0.5-0.7,0.5h-0.1
		c0,0,0-0.4,0.1-0.9c0.1-0.2,0.1-0.5,0.3-0.8s0.4-0.5,0.6-0.8C360.9,69.4,361.7,68.4,361.8,68.4L361.8,68.4z"/>
</g>
<g>
	<path fill="#BC907D" d="M354.8,68.2c0,0-0.6,1.3-1.3,2.6c-0.2,0.3-0.3,0.6-0.5,0.9s-0.4,0.5-0.6,0.7c-0.4,0.4-0.8,0.5-0.8,0.5
		l-0.1-0.1c0,0,0-0.4,0.2-0.9c0.1-0.3,0.2-0.5,0.4-0.8s0.5-0.5,0.7-0.8C353.8,69.2,354.7,68.1,354.8,68.2L354.8,68.2z"/>
</g>
<g>
	<path fill="#BC907D" d="M349.4,66.2c0,0-0.3,1.8-0.8,3.6c-0.1,0.4-0.2,0.9-0.3,1.3s-0.3,0.8-0.5,1.1c-0.3,0.6-0.7,1-0.7,1H347
		c0,0-0.1-0.5,0-1.2c0-0.3,0.1-0.7,0.2-1.1s0.4-0.8,0.5-1.2C348.5,67.8,349.3,66.1,349.4,66.2L349.4,66.2z"/>
</g>
<g>
	<path fill="#BC907D" d="M393.5,128.4c0,0,0.4,1.8,0.7,3.6c0.1,0.4,0.2,0.9,0.3,1.3c0,0.4,0,0.8,0,1.2c-0.1,0.7-0.2,1.2-0.2,1.2
		h-0.1c0,0-0.3-0.4-0.5-1.1c-0.1-0.3-0.2-0.7-0.2-1.1s0-0.9,0-1.3C393.4,130.2,393.4,128.4,393.5,128.4L393.5,128.4z"/>
</g>
<g>
	<path fill="#49403B" d="M376.4,97.9c0,0,0.3-0.1,0.9-0.2c0.6-0.1,1.4-0.3,2.3-0.4c1.9-0.3,4.3-0.4,6.6-0.4c0.6,0,1.2,0,1.8,0
		c0.6,0,1.2,0,1.7,0.1c1.1,0.1,2.2,0.2,3.1,0.3c0.9,0.1,1.7,0.3,2.3,0.4c0.6,0.1,0.9,0.2,0.9,0.2s-0.3,0.2-0.8,0.5
		c-0.5,0.3-1.2,0.7-2.1,1.1c-0.9,0.4-2,0.7-3.2,0.9c-0.6,0.1-1.2,0.2-1.8,0.3c-0.7,0.1-1.3,0.1-1.9,0.1c-0.6,0-1.3,0-1.9-0.1
		c-0.6-0.1-1.2-0.1-1.8-0.3c-1.2-0.2-2.3-0.5-3.2-0.9c-0.9-0.4-1.6-0.8-2.1-1.1C376.7,98.1,376.4,97.9,376.4,97.9z"/>
</g>
<path fill="none" stroke="#49403B" stroke-width="4" stroke-linecap="round" stroke-linejoin="round" stroke-miterlimit="10" d="
	M375.4,52c0,0-1.7,2.9-0.3,5.7c1.4,2.9,4,2.7,8.5,2.7c4.2,0,6.7,0.5,8.2-2.1c1.7-3,1-6.3,1-6.3"/>
</svg>
